<svg width="65" height="65" viewBox="0 0 65 65" fill="none" xmlns="http://www.w3.org/2000/svg">
<path d="M54.1667 18.9583H52.2709C52.8911 17.6935 53.2161 16.3042 53.2215 14.8958C53.2215 12.3818 52.2228 9.97074 50.4451 8.19305C48.6674 6.41536 46.2563 5.41667 43.7423 5.41667C39.0921 5.41667 35.035 8.66667 32.0125 12.136C28.1667 7.69708 24.2369 5.41667 20.3125 5.41667C17.7985 5.41667 15.3874 6.41536 13.6097 8.19305C11.832 9.97074 10.8334 12.3818 10.8334 14.8958C10.8415 16.3042 11.1665 17.6935 11.784 18.9583H10.8334C9.39676 18.9583 8.01901 19.529 7.00319 20.5448C5.98737 21.5607 5.41669 22.9384 5.41669 24.375V29.7917C5.41669 30.51 5.70203 31.1988 6.20994 31.7067C6.71785 32.2147 7.40673 32.5 8.12502 32.5H56.875C57.5933 32.5 58.2822 32.2147 58.7901 31.7067C59.298 31.1988 59.5834 30.51 59.5834 29.7917V24.375C59.5834 22.9384 59.0127 21.5607 57.9968 20.5448C56.981 19.529 55.6033 18.9583 54.1667 18.9583ZM27.2404 18.9583H20.3125C19.2351 18.9583 18.2018 18.5303 17.4399 17.7685C16.678 17.0066 16.25 15.9733 16.25 14.8958C16.25 13.8184 16.678 12.7851 17.4399 12.0232C18.2018 11.2613 19.2351 10.8333 20.3125 10.8333C22.75 10.8333 25.7292 12.8754 28.6867 16.5804C28.0936 17.4931 27.625 18.3002 27.2404 18.9583ZM43.7613 18.9583H33.6267C36.1536 15.2533 40.0481 10.8333 43.7531 10.8333C44.8306 10.8333 45.8639 11.2613 46.6258 12.0232C47.3876 12.7851 47.8156 13.8184 47.8156 14.8958C47.8156 15.9733 47.3876 17.0066 46.6258 17.7685C45.8639 18.5303 44.8306 18.9583 43.7531 18.9583H43.7613ZM35.2084 37.9167H29.7917V59.5833H35.2084V37.9167ZM24.375 37.9167H10.8334V54.1667C10.8334 55.6033 11.404 56.981 12.4199 57.9968C13.4357 59.0126 14.8134 59.5833 16.25 59.5833H24.375V37.9167ZM40.625 37.9167V59.5833H48.75C50.1866 59.5833 51.5644 59.0126 52.5802 57.9968C53.596 56.981 54.1667 55.6033 54.1667 54.1667V37.9167H40.625Z" fill="#E10000"/>
</svg>
