<?xml version="1.0" standalone="no"?>
<!DOCTYPE svg PUBLIC "-//W3C//DTD SVG 20010904//EN"
 "http://www.w3.org/TR/2001/REC-SVG-20010904/DTD/svg10.dtd">
<svg version="1.0" xmlns="http://www.w3.org/2000/svg"
 width="512.000000pt" height="612.000000pt" viewBox="0 0 512.000000 612.000000"
 preserveAspectRatio="xMidYMid meet">

<g transform="translate(0.000000,612.000000) scale(0.100000,-0.100000)"
fill="#000000" stroke="none">
<path d="M2770 6036 c0 -2 33 -25 73 -51 153 -102 334 -234 374 -275 108 -107
97 -308 -27 -483 -114 -163 -163 -346 -185 -692 -7 -109 -19 -180 -50 -305
-43 -171 -159 -500 -176 -500 -18 0 -92 76 -106 107 -17 42 -17 74 4 219 20
141 11 206 -35 262 l-27 33 -1 -78 c-1 -70 -5 -89 -49 -188 -37 -84 -48 -122
-48 -160 -1 -94 83 -207 208 -283 84 -50 226 -153 315 -227 89 -75 280 -269
369 -378 35 -42 65 -77 67 -77 5 0 -58 99 -105 165 -103 146 -222 271 -463
484 -65 57 -118 106 -118 108 0 2 20 38 43 81 135 238 234 519 251 712 31 333
80 514 179 662 84 125 111 213 105 342 -7 153 -46 215 -198 314 -99 65 -400
221 -400 208z"/>
<path d="M2121 5908 c-2 -16 68 -147 122 -232 92 -145 78 -198 -56 -204 -86
-5 -157 17 -242 74 -75 49 -192 165 -238 234 -43 64 -48 48 -17 -52 50 -164
202 -303 479 -442 176 -88 300 -199 366 -326 29 -56 27 -181 -4 -245 -46 -93
-191 -209 -482 -386 -166 -100 -223 -144 -303 -230 -129 -139 -197 -329 -175
-488 13 -91 59 -180 137 -263 113 -120 117 -122 767 -498 274 -159 400 -232
433 -252 53 -32 36 -14 -35 39 -143 104 -244 172 -423 282 -326 201 -415 265
-540 391 -157 156 -189 225 -190 401 0 246 112 383 565 686 343 230 424 299
480 411 30 61 45 132 45 221 0 188 -112 379 -302 515 -150 107 -304 251 -370
346 -9 14 -17 22 -17 18z"/>
<path d="M3305 3015 c41 -124 49 -390 16 -552 -28 -137 -59 -227 -134 -389
-211 -455 -291 -724 -304 -1010 -15 -346 92 -650 312 -889 l55 -60 -55 75
c-130 174 -203 379 -212 593 -7 149 2 216 58 446 68 278 169 557 299 828 82
169 106 244 121 372 20 163 -14 339 -95 499 -19 37 -42 76 -51 87 l-17 20 7
-20z"/>
<path d="M2832 2118 c-75 -109 -134 -263 -169 -434 -19 -99 -23 -436 -6 -529
8 -40 10 -12 11 135 2 315 55 572 167 801 18 38 32 69 30 69 -2 0 -17 -19 -33
-42z"/>
<path d="M2671 1064 c0 -11 3 -14 6 -6 3 7 2 16 -1 19 -3 4 -6 -2 -5 -13z"/>
</g>
</svg>
