<?xml version="1.0" standalone="no"?>
<!DOCTYPE svg PUBLIC "-//W3C//DTD SVG 20010904//EN"
 "http://www.w3.org/TR/2001/REC-SVG-20010904/DTD/svg10.dtd">
<svg version="1.0" xmlns="http://www.w3.org/2000/svg"
 width="1072.000000pt" height="1080.000000pt" viewBox="0 0 1072.000000 1080.000000"
 preserveAspectRatio="xMidYMid meet">

<g transform="translate(0.000000,1080.000000) scale(0.100000,-0.100000)"
fill="#000000" stroke="none">
<path d="M6023 9234 c-16 -92 -61 -178 -135 -259 -103 -113 -257 -175 -529
-214 -235 -34 -378 -80 -593 -189 -214 -108 -247 -172 -451 -863 -131 -446
-209 -772 -370 -1549 -53 -256 -109 -516 -126 -579 -41 -161 -35 -275 19 -363
44 -70 206 -181 435 -297 165 -84 445 -206 453 -198 3 3 -5 8 -18 12 -40 13
-398 194 -498 253 -249 145 -341 224 -367 312 -24 82 -20 151 15 290 18 69 77
341 131 605 180 868 275 1246 471 1865 107 337 153 400 365 501 186 89 330
133 535 164 237 36 395 93 500 181 45 38 117 144 145 211 21 52 45 183 33 183
-2 0 -9 -30 -15 -66z"/>
<path d="M4925 7588 c-37 -163 -47 -286 -42 -493 7 -255 19 -314 140 -676 95
-282 153 -509 197 -764 35 -205 23 -359 -39 -522 -40 -101 -92 -189 -258 -428
-250 -362 -412 -628 -553 -906 -129 -255 -156 -383 -147 -701 9 -334 83 -661
239 -1048 54 -135 213 -470 222 -470 4 0 -21 54 -54 120 -340 678 -473 1352
-360 1815 13 53 50 141 110 260 144 289 306 551 641 1035 207 299 268 486 240
739 -26 245 -105 574 -216 906 -104 311 -124 402 -132 610 -6 178 5 309 41
483 21 105 22 112 5 112 -13 0 -21 -16 -34 -72z"/>
<path d="M4750 6442 c-36 -97 -102 -253 -148 -347 -109 -224 -176 -422 -176
-525 -1 -63 4 -84 28 -133 52 -107 189 -223 372 -315 96 -48 206 -94 212 -88
2 3 -38 26 -88 51 -150 76 -264 151 -350 232 -126 118 -164 203 -140 311 25
115 94 310 151 427 55 114 122 286 184 473 48 146 22 96 -45 -86z"/>
<path d="M4715 1520 c9 -16 18 -30 21 -30 2 0 -2 14 -11 30 -9 17 -18 30 -21
30 -2 0 2 -13 11 -30z"/>
</g>
</svg>
