<?xml version="1.0" encoding="UTF-8"?> <svg xmlns="http://www.w3.org/2000/svg" width="113" height="113" viewBox="0 0 113 113" fill="none"> <path d="M56.098 112.196C87.0801 112.196 112.196 87.0801 112.196 56.098C112.196 25.1159 87.0801 0 56.098 0C25.1159 0 0 25.1159 0 56.098C0 87.0801 25.1159 112.196 56.098 112.196Z" fill="#CFBCA0"></path> <path fill-rule="evenodd" clip-rule="evenodd" d="M53.979 80.702H58.382C58.382 80.702 59.712 80.556 60.391 79.824C61.016 79.152 60.996 77.89 60.996 77.89C60.996 77.89 60.91 71.982 63.652 71.112C66.355 70.255 69.826 76.822 73.505 79.347C76.287 81.258 78.401 80.839 78.401 80.839L88.238 80.702C88.238 80.702 93.384 80.385 90.944 76.339C90.744 76.008 89.523 73.346 83.63 67.876C77.462 62.151 78.288 63.077 85.718 53.174C90.243 47.143 92.052 43.461 91.487 41.884C90.948 40.382 87.62 40.779 87.62 40.779L76.544 40.848C76.544 40.848 75.723 40.736 75.114 41.1C74.519 41.457 74.136 42.289 74.136 42.289C74.136 42.289 72.383 46.956 70.045 50.925C65.113 59.3 63.141 59.742 62.335 59.222C60.46 58.01 60.928 54.353 60.928 51.755C60.928 43.639 62.159 40.255 58.531 39.379C57.327 39.088 56.441 38.896 53.362 38.865C49.41 38.824 46.065 38.877 44.171 39.805C42.911 40.422 41.939 41.797 42.531 41.876C43.263 41.974 44.921 42.323 45.8 43.52C46.935 45.064 46.895 48.532 46.895 48.532C46.895 48.532 47.547 58.086 45.372 59.273C43.879 60.087 41.831 58.425 37.434 50.827C35.181 46.935 33.48 42.633 33.48 42.633C33.48 42.633 33.152 41.829 32.567 41.399C31.857 40.878 30.865 40.712 30.865 40.712L20.34 40.781C20.34 40.781 18.76 40.825 18.18 41.512C17.664 42.123 18.139 43.387 18.139 43.387C18.139 43.387 26.379 62.665 35.709 72.38C44.264 81.287 53.979 80.702 53.979 80.702Z" fill="#3E3E3F"></path> </svg> 